<svg width="20" height="20" viewBox="0 0 20 20" fill="none" xmlns="http://www.w3.org/2000/svg">
<g clip-path="url(#clip0_5_101)">
<path d="M18.3555 4.7L18.3723 4.6832L14.2316 0.555469L13.0555 1.7332L15.3992 4.07695C14.792 4.30712 14.2848 4.74306 13.9661 5.30879C13.6473 5.87452 13.5371 6.53417 13.6547 7.17279C13.7724 7.8114 14.1104 8.38849 14.6098 8.80349C15.1093 9.21848 15.7385 9.44506 16.3879 9.44375C16.7706 9.44392 17.1492 9.36409 17.4992 9.20937V17.2223C17.4938 17.5133 17.3743 17.7907 17.1665 17.9946C16.9587 18.1985 16.6792 18.3128 16.3881 18.3128C16.097 18.3128 15.8174 18.1985 15.6097 17.9946C15.4019 17.7907 15.2824 17.5133 15.277 17.2223V12.2223C15.277 11.9305 15.2196 11.6416 15.108 11.372C14.9964 11.1024 14.8327 10.8574 14.6265 10.651C14.4202 10.4447 14.1753 10.281 13.9057 10.1693C13.6362 10.0576 13.3473 10.0001 13.0555 10H11.9445V2.22227C11.9446 1.93042 11.8871 1.64142 11.7755 1.37178C11.6638 1.10214 11.5001 0.857139 11.2938 0.650772C11.0874 0.444405 10.8424 0.280717 10.5728 0.169055C10.3031 0.0573943 10.0141 -5.12793e-05 9.72227 3.43468e-08H3.05547C2.76363 -5.12793e-05 2.47463 0.0573943 2.20499 0.169055C1.93535 0.280717 1.69034 0.444405 1.48398 0.650772C1.27761 0.857139 1.11392 1.10214 1.00226 1.37178C0.8906 1.64142 0.833155 1.93042 0.833206 2.22227V20H11.9445V11.6668H13.6109V17.2223C13.6196 17.9533 13.9161 18.6515 14.4361 19.1654C14.9561 19.6793 15.6578 19.9674 16.3889 19.9674C17.12 19.9674 17.8216 19.6793 18.3416 19.1654C18.8616 18.6515 19.1581 17.9533 19.1668 17.2223V6.6668C19.1668 5.92977 18.8751 5.22269 18.3555 4.7ZM9.72266 7.77773H3.05547V2.22227H9.72227L9.72266 7.77773ZM16.3895 7.77773C16.1696 7.77789 15.9547 7.71283 15.7718 7.59079C15.5889 7.46876 15.4464 7.29522 15.3621 7.09214C15.2779 6.88907 15.2558 6.66557 15.2986 6.44993C15.3415 6.23429 15.4473 6.0362 15.6027 5.88072C15.7581 5.72523 15.9562 5.61934 16.1718 5.57644C16.3874 5.53354 16.6109 5.55556 16.8141 5.63971C17.0172 5.72386 17.1907 5.86636 17.3128 6.04919C17.4349 6.23201 17.5001 6.44695 17.5 6.6668C17.4991 6.96115 17.3817 7.24318 17.1736 7.45132C16.9655 7.65946 16.6834 7.77681 16.3891 7.77773H16.3895Z" fill="#A2D7B7"/>
</g>
<defs>
<clipPath id="clip0_5_101">
<rect width="20" height="20" fill="white"/>
</clipPath>
</defs>
</svg>
